<mxfile host="app.diagrams.net" modified="2024-03-29T02:01:21.102Z" agent="Mozilla/5.0 (Windows NT 10.0; Win64; x64) AppleWebKit/537.36 (KHTML, like Gecko) Chrome/122.0.0.0 Safari/537.36" version="24.2.1" etag="Sr_1b3K62VqvcV3VIdz7" type="github">
  <diagram name="第 1 页" id="CEMXbjgc5VQa0YEo05Zj">
    <mxGraphModel>
      <root>
        <mxCell id="0" />
        <mxCell id="1" parent="0" />
      </root>
    </mxGraphModel>
  </diagram>
</mxfile>
